<svg xmlns="http://www.w3.org/2000/svg" width="32" height="32" aria-hidden="true"><path d="M32 13.414c0-6.279-1.837-11.373-4.109-11.413L27.918 2h-2.592s-6.088 4.573-14.851 6.367c-.268 1.415-.438 3.102-.438 5.047s.171 3.631.438 5.047c8.763 1.794 14.851 6.367 14.851 6.367h2.592l-.027-.001C30.163 24.787 32 19.693 32 13.414zm-4.974 9.688c-.293 0-.61-.304-.773-.486-.395-.439-.775-1.124-1.1-1.979-.727-1.913-1.127-4.478-1.127-7.223s.4-5.309 1.127-7.223c.325-.855.705-1.54 1.1-1.979.163-.182.48-.486.773-.486s.61.304.773.486c.395.439.775 1.124 1.1 1.979.727 1.913 1.127 4.479 1.127 7.223s-.4 5.309-1.127 7.223c-.325.855-.705 1.54-1.1 1.979-.163.181-.48.486-.773.486zM7.869 13.414c0-1.623.119-3.201.345-4.659-1.48.205-2.779.323-4.386.323H1.732l-1.733 2.959v2.755l1.733 2.959h2.096c1.606 0 2.905.118 4.386.323a30.65 30.65 0 0 1-.345-4.659zm3.636 6.654l-4-.766 2.558 10.048a.834.834 0 0 0 1.146.583l3.705-1.483a.853.853 0 0 0 .444-1.221l-3.853-7.161zm15.521-2.92c-.113 0-.235-.117-.298-.187-.152-.169-.299-.433-.424-.763-.28-.738-.434-1.726-.434-2.784s.154-2.046.434-2.784c.125-.33.272-.593.424-.763.063-.07.185-.187.298-.187s.235.117.298.187c.152.169.299.433.424.763.28.737.434 1.726.434 2.784s-.154 2.046-.434 2.784c-.125.33-.272.593-.424.763-.063.07-.185.187-.298.187z"/></svg>
