<svg xmlns="http://www.w3.org/2000/svg" width="32" height="32" aria-hidden="true"><path d="M23.927 7.073c-.215.306-2.015 2.726-6.267 4.32a63.76 63.76 0 0 0-4.462-7A11.927 11.927 0 0 1 16 4.061c3.038 0 5.815 1.14 7.927 3.013zm-7.091 9.05c-6.167 1.994-9.449 7.427-9.72 7.891a11.91 11.91 0 0 1-3.068-8.362c.523.011 6.318.085 12.29-1.702.342.67.669 1.35.97 2.029-.158.045-.315.092-.471.142zM16 0C7.163 0 0 7.163 0 16s7.163 16 16 16 16-7.163 16-16S24.837 0 16 0zm0 30C8.28 30 2 23.72 2 16S8.28 2 16 2s14 6.28 14 14-6.28 14-14 14zm3.372-15.097a37.008 37.008 0 0 0-.793-1.732c4.421-1.805 6.425-4.374 6.677-4.715a11.903 11.903 0 0 1 2.7 7.449c-.394-.083-4.348-.885-8.327-.385-.084-.205-.17-.41-.258-.617zm-4.022-2.791c-5.594 1.485-10.52 1.464-11.055 1.457a12 12 0 0 1 6.622-8.373 76.458 76.458 0 0 1 4.434 6.916zm2.691 5.872l.079-.027c1.679 4.363 2.373 8.019 2.551 9.068-1.436.611-3.015.95-4.671.95-2.764 0-5.313-.943-7.34-2.524.215-.44 2.636-5.117 9.381-7.468zm2.317-.579c3.747-.6 7.04.382 7.449.511a11.98 11.98 0 0 1-5.126 8.015c-.123-.727-.759-4.228-2.323-8.526z"/></svg>
