<svg xmlns="http://www.w3.org/2000/svg" width="32" height="32" aria-hidden="true"><path d="M16 32C7.178 32 0 24.822 0 16S7.178 0 16 0c8.823 0 16 7.178 16 16s-7.177 16-16 16zm13.494-13.81c-.468-.148-4.23-1.27-8.513-.584 1.788 4.912 2.515 8.913 2.655 9.744a13.689 13.689 0 0 0 5.858-9.16zm-8.156 10.411c-.203-1.199-.997-5.378-2.916-10.364l-.09.03c-7.708 2.686-10.476 8.032-10.721 8.534A13.597 13.597 0 0 0 16 29.686c1.893 0 3.697-.387 5.338-1.086zM5.847 25.159c.31-.53 4.06-6.74 11.109-9.019.178-.058.358-.112.539-.162a45.83 45.83 0 0 0-1.108-2.319c-6.825 2.043-13.448 1.957-14.046 1.945a13.616 13.616 0 0 0 3.506 9.556zM2.622 13.222c.611.008 6.242.033 12.634-1.665a87.214 87.214 0 0 0-5.067-7.904c-3.823 1.803-6.681 5.328-7.567 9.569zM12.797 2.734c.378.506 2.86 3.886 5.099 8 4.86-1.821 6.917-4.587 7.163-4.937A13.61 13.61 0 0 0 16 2.353a13.64 13.64 0 0 0-3.203.38zm13.782 4.644c-.288.39-2.578 3.326-7.631 5.389a42.52 42.52 0 0 1 1.201 2.684c4.547-.572 9.066.345 9.516.44a13.6 13.6 0 0 0-3.086-8.513z"/></svg>
