<svg xmlns="http://www.w3.org/2000/svg" width="32" height="32" aria-hidden="true"><path d="M13.656 25.568c0 2.346-1.45 4.2-5.555 4.349a16.067 16.067 0 0 1-5.841-5.715c.74-1.828 3.053-3.22 5.697-3.191.751.008 1.45.129 2.086.334 1.747 1.215 3.156 1.974 3.51 3.358.066.28.103.569.103.864zM16 0A15.956 15.956 0 0 0 4.292 5.097a8.2 8.2 0 0 1 3.966-1.02h8.014l-1.791 1.879h-2.103c1.484.85 2.274 2.601 2.274 4.532 0 1.772-.982 3.199-2.368 4.283-1.352 1.056-1.609 1.499-1.609 2.398 0 .767 1.616 1.909 2.359 2.467 2.588 1.941 3.112 3.162 3.112 5.59 0 2.46-2.154 4.91-5.808 5.742a15.958 15.958 0 0 0 5.664 1.033c8.837 0 16-7.163 16-16s-7.163-16-16-16zm8 12v4h-2v-4h-4v-2h4V6h2v4h4v2h-4zm-12.57-1.392c.373 2.837-.87 4.662-3.029 4.598-2.16-.065-4.213-2.047-4.586-4.883-.373-2.837 1.076-5.008 3.235-4.944s4.007 2.392 4.379 5.228zm-4.527 9.457c-2.334 0-4.316.805-5.714 1.996A15.943 15.943 0 0 1 0 16.001c0-1.774.289-3.48.822-5.075.23 3.108 2.417 5.506 6.03 5.506.266 0 .524-.014.777-.032-.248.476-.426 1.006-.426 1.562 0 .937.515 1.471 1.152 2.09-.481 0-.946.013-1.454.013z"/></svg>
