<svg xmlns="http://www.w3.org/2000/svg" width="32" height="32" aria-hidden="true"><path d="M26.688 0H5.313C2.391 0 0 2.391 0 5.313v21.375c0 2.922 2.391 5.313 5.313 5.313h21.375c2.922 0 5.313-2.391 5.313-5.313V5.313C32.001 2.391 29.61 0 26.688 0zM10.244 14h11.513A6.101 6.101 0 0 1 16 22.094 6.101 6.101 0 0 1 9.906 16c0-.7.119-1.373.338-2zM28 14.002V26c0 1.1-.9 2-2 2H6c-1.1 0-2-.9-2-2V14h3.128A9.094 9.094 0 0 0 16 25.094c5.015 0 9.094-4.079 9.094-9.094 0-.687-.077-1.356-.222-2l3.128.002zM28 7c0 .55-.45 1-1 1h-2c-.55 0-1-.45-1-1V5c0-.55.45-1 1-1h2c.55 0 1 .45 1 1v2z"/></svg>
