<svg xmlns="http://www.w3.org/2000/svg" class="icon icon-link" width="32" height="32" viewBox="0 0 32 32" aria-hidden="true"><path d="M13.757 19.868a1.62 1.62 0 0 1-1.149-.476c-2.973-2.973-2.973-7.81 0-10.783l6-6C20.048 1.169 21.963.376 24 .376s3.951.793 5.392 2.233c2.973 2.973 2.973 7.81 0 10.783l-2.743 2.743a1.624 1.624 0 1 1-2.298-2.298l2.743-2.743a4.38 4.38 0 0 0 0-6.187c-.826-.826-1.925-1.281-3.094-1.281s-2.267.455-3.094 1.281l-6 6a4.38 4.38 0 0 0 0 6.187 1.624 1.624 0 0 1-1.149 2.774z"/><path d="M8 31.625a7.575 7.575 0 0 1-5.392-2.233c-2.973-2.973-2.973-7.81 0-10.783l2.743-2.743a1.624 1.624 0 1 1 2.298 2.298l-2.743 2.743a4.38 4.38 0 0 0 0 6.187c.826.826 1.925 1.281 3.094 1.281s2.267-.455 3.094-1.281l6-6a4.38 4.38 0 0 0 0-6.187 1.624 1.624 0 1 1 2.298-2.298c2.973 2.973 2.973 7.81 0 10.783l-6 6A7.575 7.575 0 0 1 8 31.625z"/></svg>
