<svg xmlns="http://www.w3.org/2000/svg" width="235.838" height="269.941"><path fill="#DF2B26" d="M60.933 4.502L0 34.5l12.08 14.42v137.21l48.853-48.868z"/><path d="M117.498 215.8c0 7.527-5.092 10.752-10.75 10.752-7.508 0-9.263-4.576-9.263-9.544V173.88h-.32l-24.133 24.134v24.633c0 13.574 7.256 25.528 24.053 25.528 7.39 0 14.918-3.086 20.413-8.192v6.582h24.453V173.88H117.5v41.92zm84.252-43.395c-8.327 0-15.17 2.95-20.69 8.327v-6.852h-24.577v96.06h24.578v-29.958c5.52 5.106 12.363 8.192 20.69 8.192 20.288 0 32.928-16.252 32.928-37.885 0-21.36-12.64-37.885-32.928-37.885zm-6.58 54.812c-9.398 0-14.11-7.795-14.11-17.06 0-9.268 4.575-16.93 14.11-16.93 9.278 0 13.57 7.785 13.57 16.93 0 9-4.292 17.06-13.57 17.06z" fill="#fff"/><path fill="#DF2B26" d="M157.093 0C113.6.005 78.356 35.25 78.356 78.736c0 12.008 2.77 23.353 7.57 33.528l.825.853 48.645-48.642-15.297-15.297h66.562v66.557l-15.296-15.297-48.922 48.923c10.468 5.143 22.203 8.118 34.656 8.118 43.484 0 78.74-35.25 78.74-78.742C235.838 35.25 200.582 0 157.093 0z"/></svg>